<svg width="85" height="85" viewBox="0 0 85 85" fill="none" xmlns="http://www.w3.org/2000/svg">
<rect width="85" height="85" rx="42.5" fill="#44403C"/>
<path d="M33.1914 45.9268V47H28.2148V45.9268H33.1914ZM28.4746 37.0469V47H27.1553V37.0469H28.4746ZM34.1758 43.3838V43.2266C34.1758 42.6934 34.2533 42.1989 34.4082 41.7432C34.5632 41.2829 34.7865 40.8841 35.0781 40.5469C35.3698 40.2051 35.723 39.9408 36.1377 39.7539C36.5524 39.5625 37.0173 39.4668 37.5322 39.4668C38.0518 39.4668 38.5189 39.5625 38.9336 39.7539C39.3529 39.9408 39.7083 40.2051 40 40.5469C40.2962 40.8841 40.5218 41.2829 40.6768 41.7432C40.8317 42.1989 40.9092 42.6934 40.9092 43.2266V43.3838C40.9092 43.917 40.8317 44.4115 40.6768 44.8672C40.5218 45.3229 40.2962 45.7217 40 46.0635C39.7083 46.4007 39.3551 46.665 38.9404 46.8564C38.5303 47.0433 38.0654 47.1367 37.5459 47.1367C37.0264 47.1367 36.5592 47.0433 36.1445 46.8564C35.7298 46.665 35.3743 46.4007 35.0781 46.0635C34.7865 45.7217 34.5632 45.3229 34.4082 44.8672C34.2533 44.4115 34.1758 43.917 34.1758 43.3838ZM35.4404 43.2266V43.3838C35.4404 43.7529 35.4837 44.1016 35.5703 44.4297C35.6569 44.7533 35.7868 45.0404 35.96 45.291C36.1377 45.5417 36.3587 45.7399 36.623 45.8857C36.8874 46.027 37.195 46.0977 37.5459 46.0977C37.8923 46.0977 38.1953 46.027 38.4551 45.8857C38.7194 45.7399 38.9382 45.5417 39.1113 45.291C39.2845 45.0404 39.4144 44.7533 39.501 44.4297C39.5921 44.1016 39.6377 43.7529 39.6377 43.3838V43.2266C39.6377 42.862 39.5921 42.5179 39.501 42.1943C39.4144 41.8662 39.2822 41.5768 39.1045 41.3262C38.9313 41.071 38.7126 40.8704 38.4482 40.7246C38.1885 40.5788 37.8831 40.5059 37.5322 40.5059C37.1859 40.5059 36.8805 40.5788 36.6162 40.7246C36.3564 40.8704 36.1377 41.071 35.96 41.3262C35.7868 41.5768 35.6569 41.8662 35.5703 42.1943C35.4837 42.5179 35.4404 42.862 35.4404 43.2266ZM47.2871 39.6035H48.4355V46.8428C48.4355 47.4945 48.3034 48.0505 48.0391 48.5107C47.7747 48.971 47.4056 49.3197 46.9316 49.5566C46.4622 49.7982 45.9199 49.9189 45.3047 49.9189C45.0495 49.9189 44.7487 49.8779 44.4023 49.7959C44.0605 49.7184 43.7233 49.584 43.3906 49.3926C43.0625 49.2057 42.7868 48.9528 42.5635 48.6338L43.2266 47.8818C43.5365 48.2555 43.86 48.5153 44.1973 48.6611C44.5391 48.807 44.8763 48.8799 45.209 48.8799C45.61 48.8799 45.9564 48.8047 46.248 48.6543C46.5397 48.5039 46.7653 48.2806 46.9248 47.9844C47.0889 47.6927 47.1709 47.3327 47.1709 46.9043V41.2305L47.2871 39.6035ZM42.1943 43.3838V43.2402C42.1943 42.6751 42.2604 42.1624 42.3926 41.7021C42.5293 41.2373 42.723 40.8385 42.9736 40.5059C43.2288 40.1732 43.5365 39.918 43.8965 39.7402C44.2565 39.5579 44.6621 39.4668 45.1133 39.4668C45.5781 39.4668 45.9837 39.5488 46.3301 39.7129C46.681 39.8724 46.9772 40.1071 47.2188 40.417C47.4648 40.7223 47.6585 41.0915 47.7998 41.5244C47.9411 41.9574 48.0391 42.4473 48.0938 42.9941V43.623C48.0436 44.1654 47.9456 44.653 47.7998 45.0859C47.6585 45.5189 47.4648 45.888 47.2188 46.1934C46.9772 46.4987 46.681 46.7334 46.3301 46.8975C45.9792 47.057 45.569 47.1367 45.0996 47.1367C44.6576 47.1367 44.2565 47.0433 43.8965 46.8564C43.541 46.6696 43.2357 46.4076 42.9805 46.0703C42.7253 45.7331 42.5293 45.3366 42.3926 44.8809C42.2604 44.4206 42.1943 43.9215 42.1943 43.3838ZM43.459 43.2402V43.3838C43.459 43.7529 43.4954 44.0993 43.5684 44.4229C43.6458 44.7464 43.762 45.0312 43.917 45.2773C44.0765 45.5234 44.2793 45.7171 44.5254 45.8584C44.7715 45.9951 45.0654 46.0635 45.4072 46.0635C45.8265 46.0635 46.1729 45.9746 46.4463 45.7969C46.7197 45.6191 46.9362 45.3844 47.0957 45.0928C47.2598 44.8011 47.3874 44.4844 47.4785 44.1426V42.4951C47.4284 42.2445 47.3509 42.0029 47.2461 41.7705C47.1458 41.5335 47.0137 41.3239 46.8496 41.1416C46.6901 40.9548 46.4919 40.8066 46.2549 40.6973C46.0179 40.5879 45.7399 40.5332 45.4209 40.5332C45.0745 40.5332 44.776 40.6061 44.5254 40.752C44.2793 40.8932 44.0765 41.0892 43.917 41.3398C43.762 41.5859 43.6458 41.873 43.5684 42.2012C43.4954 42.5247 43.459 42.8711 43.459 43.2402ZM50.0215 43.3838V43.2266C50.0215 42.6934 50.099 42.1989 50.2539 41.7432C50.4089 41.2829 50.6322 40.8841 50.9238 40.5469C51.2155 40.2051 51.5687 39.9408 51.9834 39.7539C52.3981 39.5625 52.863 39.4668 53.3779 39.4668C53.8975 39.4668 54.3646 39.5625 54.7793 39.7539C55.1986 39.9408 55.554 40.2051 55.8457 40.5469C56.1419 40.8841 56.3675 41.2829 56.5225 41.7432C56.6774 42.1989 56.7549 42.6934 56.7549 43.2266V43.3838C56.7549 43.917 56.6774 44.4115 56.5225 44.8672C56.3675 45.3229 56.1419 45.7217 55.8457 46.0635C55.554 46.4007 55.2008 46.665 54.7861 46.8564C54.376 47.0433 53.9111 47.1367 53.3916 47.1367C52.8721 47.1367 52.4049 47.0433 51.9902 46.8564C51.5755 46.665 51.2201 46.4007 50.9238 46.0635C50.6322 45.7217 50.4089 45.3229 50.2539 44.8672C50.099 44.4115 50.0215 43.917 50.0215 43.3838ZM51.2861 43.2266V43.3838C51.2861 43.7529 51.3294 44.1016 51.416 44.4297C51.5026 44.7533 51.6325 45.0404 51.8057 45.291C51.9834 45.5417 52.2044 45.7399 52.4688 45.8857C52.7331 46.027 53.0407 46.0977 53.3916 46.0977C53.738 46.0977 54.041 46.027 54.3008 45.8857C54.5651 45.7399 54.7839 45.5417 54.957 45.291C55.1302 45.0404 55.2601 44.7533 55.3467 44.4297C55.4378 44.1016 55.4834 43.7529 55.4834 43.3838V43.2266C55.4834 42.862 55.4378 42.5179 55.3467 42.1943C55.2601 41.8662 55.1279 41.5768 54.9502 41.3262C54.777 41.071 54.5583 40.8704 54.2939 40.7246C54.0342 40.5788 53.7288 40.5059 53.3779 40.5059C53.0316 40.5059 52.7262 40.5788 52.4619 40.7246C52.2021 40.8704 51.9834 41.071 51.8057 41.3262C51.6325 41.5768 51.5026 41.8662 51.416 42.1943C51.3294 42.5179 51.2861 42.862 51.2861 43.2266Z" fill="white"/>
</svg>
